<?xml version="1.0" encoding="UTF-8"?>

<svg xmlns="http://www.w3.org/2000/svg" version="1.1" width="48px" height="48px" viewBox="-0.015 -0.015 1.03 1.03"
    preserveAspectRatio="xMidYMid">

    <defs>
        <filter id="coin-shadow">
            <feGaussianBlur in="SourceAlpha" result="blur-out" stdDeviation="0.5" />
            <feMerge>
                <feMergeNode />
                <feMergeNode in="SourceGraphic" />
            </feMerge>
        </filter>
        <filter id="symbol-shadow">
            <feGaussianBlur in="SourceAlpha" result="blur-out" stdDeviation="1.3" />
            <feMerge>
                <feMergeNode />
                <feMergeNode in="SourceGraphic" />
            </feMerge>
        </filter>
        <linearGradient id="coin-gradient" x1="0%" y1="0%" x2="0%" y2="100%">
            <stop offset="0%" style="stop-color:#3e7bc1" />
            <stop offset="100%" style="stop-color:#345d9d" />
        </linearGradient>
    </defs>

    <g transform="scale(0.015625)">
        <path id="coin"
            d="m 63.0359,39.741 c -4.274,17.143 -21.637,27.576 -38.782,23.301 -17.138,-4.274 -27.571,-21.638 -23.295,-38.78 4.272,-17.145 21.635,-27.579 38.775,-23.305 17.144,4.274 27.576,21.64 23.302,38.784 z"
            style="fill:url(#coin-gradient)" filter="url(#coin-shadow)" />
        <path id="symbol"
            d="M 10.427 18.214 9 18.768 9.688 16.009 11.132 15.429 13.213 7 18.342 7 16.823 13.196 18.233 12.625 17.553 15.375 16.126 15.946 15.278 19.429 23 19.429 22.127 23 9.252 23z"
            style="fill:#ffffff" filter="url(#symbol-shadow)"
            transform="matrix(2,0,0,2,0,0)" />
    </g>

</svg>
